<?xml version="1.0" encoding="utf-8"?>
<!-- Generator: Adobe Illustrator 16.2.0, SVG Export Plug-In . SVG Version: 6.00 Build 0)  -->
<!DOCTYPE svg PUBLIC "-//W3C//DTD SVG 1.1//EN" "http://www.w3.org/Graphics/SVG/1.1/DTD/svg11.dtd">
<svg version="1.1" id="Layer_1" xmlns="http://www.w3.org/2000/svg" xmlns:xlink="http://www.w3.org/1999/xlink" x="0px" y="0px"
	 width="791.676px" height="76.411px" viewBox="0 0 791.676 76.411" enable-background="new 0 0 791.676 76.411"
	 xml:space="preserve">
<g>
	<g>
		<defs>
			<rect id="SVGID_1_" x="256.974" y="42.971" width="534.702" height="18.206"/>
		</defs>
		<clipPath id="SVGID_2_">
			<use xlink:href="#SVGID_1_"  overflow="visible"/>
		</clipPath>
		<path clip-path="url(#SVGID_2_)" d="M741.307,60.483c0.876,0.363,2.081,0.693,3.688,0.693c2.521,0,5.331-1.314,5.331-4.563
			c0-4.749-7.448-4.785-7.448-8.033c0-2.083,1.825-2.777,3.506-2.777c1.094,0,2.228,0.219,2.957,0.622l0.256-1.46
			c-1.132-0.402-2.41-0.548-3.179-0.548c-2.847,0-5.146,1.644-5.146,4.235c0,4.272,7.448,4.639,7.448,7.852
			c0,2.3-1.643,3.322-3.651,3.322c-1.497,0-2.629-0.365-3.577-0.948L741.307,60.483z M730.277,60.885h8.217v-1.387h-6.645v-6.244
			h6.025v-1.39h-6.025v-5.804h6.353v-1.389h-7.961v16.213H730.277z M717.389,60.885h1.606v-7.667h1.314
			c1.535,0,2.229,0.072,3.177,2.153l2.339,5.476h1.75l-2.774-6.277c-0.511-1.096-0.802-1.79-2.08-1.937v-0.036
			c2.009-0.256,3.615-1.646,3.615-3.762c0-2.993-1.9-4.2-4.785-4.2h-4.198v16.25H717.389z M718.995,46.061h1.643
			c2.228,0,4.092,0.145,4.092,2.811c0,2.264-2.155,2.993-4.054,2.993h-1.681V46.061z M713.48,44.671h-1.605v10.552
			c0,2.666-1.46,4.565-4.272,4.565c-2.811,0-4.272-1.899-4.272-4.565V44.671h-1.605v10.552c0,4.785,3.504,5.953,5.878,5.953
			s5.878-1.168,5.878-5.953V44.671z M693.217,60.885h1.606V46.061h4.782v-1.389h-11.172v1.389h4.783V60.885z M685.511,55.152h-7.047
			l3.543-8.947L685.511,55.152z M674.559,60.885h1.567l1.753-4.347h8.181l1.753,4.347h1.679l-6.428-16.213h-1.825L674.559,60.885z
			 M665.793,60.885h8.105v-1.387h-6.499V44.671h-1.606V60.885z M653.706,60.483c0.877,0.363,2.083,0.693,3.689,0.693
			c2.52,0,5.331-1.314,5.331-4.563c0-4.749-7.45-4.785-7.45-8.033c0-2.083,1.825-2.777,3.506-2.777c1.097,0,2.229,0.219,2.958,0.622
			l0.255-1.46c-1.132-0.402-2.408-0.548-3.176-0.548c-2.849,0-5.149,1.644-5.149,4.235c0,4.272,7.451,4.639,7.451,7.852
			c0,2.3-1.645,3.322-3.653,3.322c-1.497,0-2.629-0.365-3.578-0.948L653.706,60.483z M648.924,60.885h1.606V44.671h-1.606V60.885z
			 M643.483,59.204c-0.768,0.476-2.448,0.585-3.434,0.585c-4.272,0-6.571-2.921-6.571-7.01c0-4.017,2.372-7.012,6.571-7.012
			c1.426,0,2.921,0.146,4.164,0.876l0.183-1.498c-1.096-0.546-3.104-0.766-4.347-0.766c-5.038,0-8.178,3.47-8.178,8.399
			c0,5.038,3.066,8.397,8.178,8.397c1.79,0,3.396-0.292,5.04-0.984v-8.108h-5.367v1.426h3.761V59.204L643.483,59.204z
			 M620.734,60.885h8.217v-1.387h-6.646v-6.244h6.024v-1.39h-6.024v-5.804h6.353v-1.389h-7.959v16.213H620.734z M610.254,60.885
			h8.106v-1.387h-6.5V44.671h-1.606V60.885z M592.289,60.885h8.215v-1.387h-6.645v-6.244h6.025v-1.39h-6.025v-5.804h6.354v-1.389
			h-7.959v16.213H592.289z M583.708,60.885h1.605V46.061h4.785v-1.389h-11.174v1.389h4.783V60.885z M576.004,55.152h-7.049
			l3.543-8.947L576.004,55.152z M565.05,60.885h1.569l1.753-4.347h8.179l1.753,4.347h1.681l-6.463-16.213h-1.825L565.05,60.885z
			 M559.718,60.885h1.606V46.061h4.785v-1.389h-11.176v1.389h4.784V60.885z M544.455,60.483c0.877,0.363,2.08,0.693,3.687,0.693
			c2.521,0,5.332-1.314,5.332-4.563c0-4.749-7.448-4.785-7.448-8.033c0-2.083,1.825-2.777,3.504-2.777
			c1.096,0,2.228,0.219,2.959,0.622l0.256-1.46c-1.133-0.402-2.411-0.548-3.177-0.548c-2.849,0-5.148,1.644-5.148,4.235
			c0,4.272,7.448,4.639,7.448,7.852c0,2.3-1.645,3.322-3.652,3.322c-1.496,0-2.628-0.365-3.577-0.948L544.455,60.483z
			 M528.06,60.885h1.606v-7.667h5.843v-1.39h-5.843v-5.768h6.134v-1.389h-7.703v16.213H528.06z M517.872,45.767
			c3.797,0,5.551,3.542,5.551,7.012c0,3.433-1.718,7.01-5.551,7.01c-3.834,0-5.552-3.542-5.552-7.01
			C512.32,49.345,514.074,45.767,517.872,45.767 M510.751,52.779c0.036,4.966,2.446,8.397,7.157,8.397
			c4.674,0,7.085-3.432,7.121-8.397c0.036-4.383-2.265-8.399-7.121-8.399C512.979,44.38,510.679,48.396,510.751,52.779
			 M493.369,60.885h8.253v-1.387h-6.645v-6.244h6.023v-1.39h-6.023v-5.804h6.354v-1.389h-7.962V60.885z M489.098,45.001
			c-0.838-0.438-2.774-0.621-3.724-0.621c-5.04,0-8.181,3.47-8.181,8.399c0,5.038,3.068,8.397,8.181,8.397
			c1.021,0,2.847-0.146,3.724-0.693l-0.108-1.388c-0.913,0.547-2.558,0.693-3.615,0.693c-4.273,0-6.574-2.921-6.574-7.01
			c0-4.017,2.374-7.012,6.574-7.012c1.132,0,2.592,0.146,3.615,0.693L489.098,45.001z M462.15,60.885h1.606V46.899h0.035
			l8.108,13.986h2.153V44.671h-1.606v14.278h-0.036l-8.253-14.278h-2.008V60.885z M450.721,60.885h8.215v-1.387h-6.608v-6.244h6.025
			v-1.39h-6.025v-5.804h6.354v-1.389h-7.96V60.885L450.721,60.885z M437.831,60.885h1.606v-7.667h1.314
			c1.533,0,2.227,0.072,3.177,2.153l2.338,5.476h1.753l-2.738-6.241c-0.513-1.096-0.804-1.79-2.082-1.937v-0.036
			c2.008-0.256,3.614-1.643,3.614-3.762c0-2.993-1.862-4.2-4.783-4.2h-4.199V60.885L437.831,60.885z M439.438,46.061h1.645
			c2.227,0,4.088,0.145,4.088,2.811c0,2.264-2.155,2.993-4.053,2.993H439.4v-5.804H439.438z M426.183,60.885h8.217v-1.387h-6.646
			v-6.244h6.025v-1.39h-6.025v-5.804h6.355v-1.389h-7.962v16.213H426.183z M415.63,60.885h1.606v-7.667h5.842v-1.39h-5.842v-5.768
			h6.136v-1.389h-7.705v16.213H415.63z M400.112,60.885h1.605V46.899h0.037l8.105,13.986h2.155V44.671h-1.605v14.278h-0.039
			l-8.215-14.278h-2.044V60.885z M389.923,45.767c3.833,0,5.551,3.542,5.551,7.012c0,3.433-1.718,7.01-5.551,7.01
			c-3.798,0-5.551-3.542-5.551-7.01C384.409,49.345,386.125,45.767,389.923,45.767 M382.803,52.779
			c0.036,4.966,2.446,8.397,7.121,8.397s7.084-3.432,7.158-8.397c0.036-4.383-2.265-8.399-7.158-8.399
			C385.066,44.38,382.767,48.396,382.803,52.779 M379.26,45.001c-0.838-0.438-2.774-0.621-3.723-0.621
			c-5.04,0-8.181,3.47-8.181,8.399c0,5.038,3.068,8.397,8.181,8.397c1.021,0,2.846-0.146,3.723-0.693l-0.108-1.388
			c-0.913,0.547-2.558,0.693-3.615,0.693c-4.272,0-6.574-2.921-6.574-7.01c0-4.017,2.374-7.012,6.574-7.012
			c1.131,0,2.591,0.146,3.615,0.693L379.26,45.001z M351.107,60.885h8.108v-1.387h-6.5V44.671h-1.608V60.885L351.107,60.885z
			 M344.974,55.152h-7.046l3.541-8.947L344.974,55.152z M334.019,60.885h1.57l1.753-4.347h8.178l1.753,4.347h1.681l-6.463-16.213
			h-1.826L334.019,60.885z M319.997,60.885h1.608V46.899h0.036l8.106,13.986h2.155V44.671h-1.608v14.278h-0.036l-8.253-14.278
			h-2.008V60.885z M309.811,45.767c3.797,0,5.55,3.542,5.55,7.012c0,3.433-1.717,7.01-5.55,7.01c-3.834,0-5.551-3.542-5.551-7.01
			C304.26,49.345,306.013,45.767,309.811,45.767 M302.689,52.779c0.036,4.966,2.447,8.397,7.121,8.397
			c4.674,0,7.082-3.432,7.12-8.397c0.037-4.383-2.263-8.399-7.12-8.399C304.953,44.38,302.617,48.396,302.689,52.779
			 M298.051,60.885h1.606V44.671h-1.606V60.885z M289.654,60.885h1.606V46.061h4.783v-1.389H284.87v1.389h4.785V60.885z
			 M281.949,55.152h-7.046l3.542-8.947L281.949,55.152z M270.994,60.885h1.57l1.753-4.347h8.181l1.752,4.347h1.679l-6.463-16.213
			h-1.826L270.994,60.885z M256.974,60.885h1.606V46.899h0.036l8.105,13.986h2.155V44.671h-1.606v14.278h-0.036l-8.253-14.278
			h-2.008V60.885z"/>
	</g>
</g>
<g>
	<g>
		<defs>
			<rect id="SVGID_3_" width="243.217" height="76.411"/>
		</defs>
		<clipPath id="SVGID_4_">
			<use xlink:href="#SVGID_3_"  overflow="visible"/>
		</clipPath>
		<path clip-path="url(#SVGID_4_)" fill="#235681" d="M115.553,22.53h-7.127h-0.428v0.429v37.425
			C97.852,47.807,87.686,35.246,77.542,22.686l-0.137-0.156H77.19H64.864h-0.428v0.429v6.211v0.428h0.428h4.771v44.729v0.429h0.428
			h7.049h0.429v-0.429V35.753c9.464,11.721,18.947,23.445,28.411,35.168c3.018,3.718,3.543,4.361,8.022,4.828l1.538,0.156
			l0.468,0.039v-0.468V22.958V22.53H115.553z"/>
	</g>
	<g>
		<defs>
			<rect id="SVGID_5_" width="243.217" height="76.411"/>
		</defs>
		<clipPath id="SVGID_6_">
			<use xlink:href="#SVGID_5_"  overflow="visible"/>
		</clipPath>
		<path clip-path="url(#SVGID_6_)" fill="#235681" d="M164.488,63.811l-1.811,0.857C158.568,66.655,154.323,68.7,150,68.7
			c-13.301,0-20.603-7.284-20.603-20.503c0-11.569,8.315-19.67,20.231-19.67c1.929,0,4.46,0.079,7.09,0.683v6.874v0.429h0.428h6.446
			h0.428v-0.429V24.049v-0.312l-0.293-0.097c-4.342-1.461-9.347-2.24-14.506-2.24c-16.806,0-28.528,11.236-28.528,27.34
			c0,16.825,11.177,27.262,29.151,27.262c4.849,0,10.826-1.908,14.975-3.506l0.273-0.097v-0.293v-7.886v-0.682L164.488,63.811z"/>
	</g>
	<g>
		<defs>
			<rect id="SVGID_7_" width="243.217" height="76.411"/>
		</defs>
		<clipPath id="SVGID_8_">
			<use xlink:href="#SVGID_7_"  overflow="visible"/>
		</clipPath>
		<path clip-path="url(#SVGID_8_)" fill="#235681" d="M204.875,60.678c0-8.882-4.946-11.938-12.521-15.56
			c-2.804-1.401-5.279-2.569-7.576-3.603c-2.862-1.382-6.153-3.425-6.153-6.97c0-5.803,7.865-6.095,9.444-6.095
			c2.258,0,4.439,0.506,6.133,0.974v6.737v0.428h0.429h6.485h0.428v-0.428V24.438v-0.292l-0.273-0.098
			c-4.303-1.655-8.568-2.473-12.657-2.473c-9.21,0-18.481,4.187-18.481,13.534c0,6.211,3.079,10.477,9.971,13.807
			c1.129,0.546,2.259,1.032,3.408,1.538c1.129,0.486,2.259,0.994,3.388,1.519c3.837,1.715,9.561,4.283,9.561,9.113
			c0,7.069-8.412,7.614-10.983,7.614c-4.731,0-10.321-1.694-14.974-4.537l-0.643-0.39v0.759v7.674v0.251l0.234,0.117
			c4.361,2.239,9.676,3.428,15.403,3.428C194.846,75.982,204.875,71.974,204.875,60.678"/>
	</g>
	<g>
		<defs>
			<rect id="SVGID_9_" width="243.217" height="76.411"/>
		</defs>
		<clipPath id="SVGID_10_">
			<use xlink:href="#SVGID_9_"  overflow="visible"/>
		</clipPath>
		<path clip-path="url(#SVGID_10_)" fill="#235681" d="M242.359,67.688h-22.14V23.036v-0.428h-0.428h-13.067h-0.428v0.428v6.29
			v0.428h0.428h4.946c0.019,14.877,0.059,29.774,0.076,44.651v0.431h0.43h30.182h0.428v-0.431v-6.289v-0.429H242.359z"/>
	</g>
	<polygon fill="#235681" points="27.652,0 26.249,17.35 27.671,17.467 	"/>
	<polygon fill="#235681" points="27.577,0 27.577,17.467 29.067,17.35 	"/>
	<g>
		<g>
			<defs>
				<rect id="SVGID_11_" width="243.217" height="76.411"/>
			</defs>
			<clipPath id="SVGID_12_">
				<use xlink:href="#SVGID_11_"  overflow="visible"/>
			</clipPath>
			<path clip-path="url(#SVGID_12_)" fill="#235681" d="M36.025,21.031c1.013,1.46,1.538,2.648,1.538,2.648
				c3.194,5.531,7.594,14.974,7.263,30.534h6.095v-0.508c-0.175-13.981-4.323-21.068-7.127-25.178
				C43.814,28.527,40.815,24.009,36.025,21.031"/>
		</g>
		<g>
			<defs>
				<rect id="SVGID_13_" width="243.217" height="76.411"/>
			</defs>
			<clipPath id="SVGID_14_">
				<use xlink:href="#SVGID_13_"  overflow="visible"/>
			</clipPath>
			<path clip-path="url(#SVGID_14_)" fill="#235681" d="M30.903,21.907c1.402,3.563,4.167,11.937,4.012,32.306h5.998
				c-0.195-13.981-3.681-22.336-6.037-27.107C34.876,27.105,33.513,23.679,30.903,21.907"/>
		</g>
		<g>
			<defs>
				<rect id="SVGID_15_" width="243.217" height="76.411"/>
			</defs>
			<clipPath id="SVGID_16_">
				<use xlink:href="#SVGID_15_"  overflow="visible"/>
			</clipPath>
			<path clip-path="url(#SVGID_16_)" fill="#235681" d="M11.236,28.527c-2.805,4.11-6.952,11.197-7.108,25.178v0.508h6.231
				c-0.35-15.561,4.051-25.003,7.264-30.554c0,0,0.545-1.109,1.558-2.492C14.37,24.146,11.236,28.527,11.236,28.527"/>
		</g>
		<g>
			<defs>
				<rect id="SVGID_17_" width="243.217" height="76.411"/>
			</defs>
			<clipPath id="SVGID_18_">
				<use xlink:href="#SVGID_17_"  overflow="visible"/>
			</clipPath>
			<path clip-path="url(#SVGID_18_)" fill="#235681" d="M27.768,22.354l0.156-0.039H27.3l0.312,0.079
				c-1.091,3.738-3.232,14.818-3.155,31.819h6.466C31.02,37.193,28.879,26.094,27.768,22.354"/>
		</g>
		<g>
			<defs>
				<polygon id="SVGID_19_" points="0,0 250.502,0 243.217,76.411 0,76.411 				"/>
			</defs>
			<clipPath id="SVGID_20_">
				<use xlink:href="#SVGID_19_"  overflow="visible"/>
			</clipPath>
			<path clip-path="url(#SVGID_20_)" fill="#235681" d="M20.31,27.086c-2.356,4.771-5.841,13.145-6.036,27.126h6.172
				c-0.136-20.447,2.668-28.801,4.051-32.326C21.81,23.64,20.31,27.086,20.31,27.086"/>
		</g>
	</g>
	<polygon fill="#235681" points="44.924,75.301 44.924,57.991 40.757,57.971 40.757,75.282 	"/>
	<polygon fill="#235681" points="54.894,75.301 54.894,57.991 50.726,57.971 50.726,75.282 	"/>
	<polygon fill="#235681" points="34.876,75.301 34.876,57.991 30.728,57.971 30.728,75.282 	"/>
	<polygon fill="#235681" points="24.556,75.301 24.556,57.991 20.408,57.971 20.408,75.282 	"/>
	<polygon fill="#235681" points="14.352,75.301 14.352,57.991 10.204,57.971 10.204,75.282 	"/>
	<polygon fill="#235681" points="0,75.282 4.147,75.301 4.147,57.991 0,57.971 	"/>
</g>
</svg>
