<?xml version="1.0" encoding="utf-8"?>
<!-- Generator: Adobe Illustrator 22.1.0, SVG Export Plug-In . SVG Version: 6.00 Build 0)  -->
<svg version="1.1" id="Layer_1" xmlns="http://www.w3.org/2000/svg" xmlns:xlink="http://www.w3.org/1999/xlink" x="0px" y="0px"
	 viewBox="0 0 1249 392.4" style="enable-background:new 0 0 1249 392.4;" xml:space="preserve">
<style type="text/css">
	.st0{clip-path:url(#SVGID_2_);}
	.st1{clip-path:url(#SVGID_2_);fill:none;stroke:#231F20;stroke-width:0.771;}
	.st2{clip-path:url(#SVGID_4_);}
</style>
<g>
	<defs>
		<rect id="SVGID_1_" y="0" width="1249" height="392.4"/>
	</defs>
	<clipPath id="SVGID_2_">
		<use xlink:href="#SVGID_1_"  style="overflow:visible;"/>
	</clipPath>
	<path class="st0" d="M593.4,115.7h-36.6h-2.2v2.2v192.2C502.5,245.5,450.3,181,398.2,116.5l-0.7-0.8h-1.1h-63.3h-2.2v2.2v31.9v2.2
		h2.2h24.5v229.7v2.2h2.2h36.2h2.2v-2.2V183.6c48.6,60.2,97.3,120.4,145.9,180.6c15.5,19.1,18.2,22.4,41.2,24.8l7.9,0.8l2.4,0.2
		v-2.4V117.9v-2.2H593.4z"/>
	<path class="st1" d="M593.4,115.7h-36.6h-2.2v2.2v192.2C502.5,245.5,450.3,181,398.2,116.5l-0.7-0.8h-1.1h-63.3h-2.2v2.2v31.9v2.2
		h2.2h24.5v229.7v2.2h2.2h36.2h2.2v-2.2V183.6c48.6,60.2,97.3,120.4,145.9,180.6c15.5,19.1,18.2,22.4,41.2,24.8l7.9,0.8l2.4,0.2
		v-2.4V117.9v-2.2H593.4z"/>
	<path class="st0" d="M844.7,327.7l-9.3,4.4c-21.1,10.2-42.9,20.7-65.1,20.7c-68.3,0-105.8-37.4-105.8-105.3
		c0-59.4,42.7-101,103.9-101c9.9,0,22.9,0.4,36.4,3.5v35.3v2.2h2.2h33.1h2.2v-2.2v-61.8v-1.6l-1.5-0.5c-22.3-7.5-48-11.5-74.5-11.5
		c-86.3,0-146.5,57.7-146.5,140.4c0,86.4,57.4,140,149.7,140c24.9,0,55.6-9.8,76.9-18l1.4-0.5v-1.5v-40.5v-3.5L844.7,327.7z"/>
	<path class="st1" d="M844.7,327.7l-9.3,4.4c-21.1,10.2-42.9,20.7-65.1,20.7c-68.3,0-105.8-37.4-105.8-105.3
		c0-59.4,42.7-101,103.9-101c9.9,0,22.9,0.4,36.4,3.5v35.3v2.2h2.2h33.1h2.2v-2.2v-61.8v-1.6l-1.5-0.5c-22.3-7.5-48-11.5-74.5-11.5
		c-86.3,0-146.5,57.7-146.5,140.4c0,86.4,57.4,140,149.7,140c24.9,0,55.6-9.8,76.9-18l1.4-0.5v-1.5v-40.5v-3.5L844.7,327.7z"/>
	<path class="st0" d="M1052.1,311.6c0-45.6-25.4-61.3-64.3-79.9c-14.4-7.2-27.1-13.2-38.9-18.5c-14.7-7.1-31.6-17.6-31.6-35.8
		c0-29.8,40.4-31.3,48.5-31.3c11.6,0,22.8,2.6,31.5,5v34.6v2.2h2.2h33.3h2.2v-2.2v-60.2v-1.5l-1.4-0.5c-22.1-8.5-44-12.7-65-12.7
		c-47.3,0-94.9,21.5-94.9,69.5c0,31.9,15.8,53.8,51.2,70.9c5.8,2.8,11.6,5.3,17.5,7.9c5.8,2.5,11.6,5.1,17.4,7.8
		c19.7,8.8,49.1,22,49.1,46.8c0,36.3-43.2,39.1-56.4,39.1c-24.3,0-53-8.7-76.9-23.3l-3.3-2v3.9v39.4v1.3l1.2,0.6
		c22.4,11.5,49.7,17.6,79.1,17.6C1000.6,390.2,1052.1,369.6,1052.1,311.6"/>
	<path class="st1" d="M1052.1,311.6c0-45.6-25.4-61.3-64.3-79.9c-14.4-7.2-27.1-13.2-38.9-18.5c-14.7-7.1-31.6-17.6-31.6-35.8
		c0-29.8,40.4-31.3,48.5-31.3c11.6,0,22.8,2.6,31.5,5v34.6v2.2h2.2h33.3h2.2v-2.2v-60.2v-1.5l-1.4-0.5c-22.1-8.5-44-12.7-65-12.7
		c-47.3,0-94.9,21.5-94.9,69.5c0,31.9,15.8,53.8,51.2,70.9c5.8,2.8,11.6,5.3,17.5,7.9c5.8,2.5,11.6,5.1,17.4,7.8
		c19.7,8.8,49.1,22,49.1,46.8c0,36.3-43.2,39.1-56.4,39.1c-24.3,0-53-8.7-76.9-23.3l-3.3-2v3.9v39.4v1.3l1.2,0.6
		c22.4,11.5,49.7,17.6,79.1,17.6C1000.6,390.2,1052.1,369.6,1052.1,311.6z"/>
	<path class="st0" d="M1244.6,347.6h-113.7V118.3v-2.2h-2.2h-67.1h-2.2v2.2v32.3v2.2h2.2h25.4c0.1,76.4,0.3,152.9,0.4,229.3l0,2.2
		h2.2h155h2.2v-2.2v-32.3v-2.2H1244.6z"/>
	<path class="st1" d="M1244.6,347.6h-113.7V118.3v-2.2h-2.2h-67.1h-2.2v2.2v32.3v2.2h2.2h25.4c0.1,76.4,0.3,152.9,0.4,229.3l0,2.2
		h2.2h155h2.2v-2.2v-32.3v-2.2H1244.6z"/>
</g>
<polygon points="142,0 134.8,89.1 142.1,89.7 "/>
<polygon points="142.1,0 142.1,89.7 149.3,89.1 "/>
<g>
	<defs>
		<rect id="SVGID_3_" y="0" width="1249" height="392.4"/>
	</defs>
	<clipPath id="SVGID_4_">
		<use xlink:href="#SVGID_3_"  style="overflow:visible;"/>
	</clipPath>
	<path class="st2" d="M185,108c5.2,7.5,7.9,13.6,7.9,13.6c16.4,28.4,39,76.9,37.3,156.8h31.3v-2.6c-0.9-71.8-22.2-108.2-36.6-129.3
		C225,146.5,209.6,123.3,185,108"/>
	<path class="st2" d="M158.7,112.5c7.2,18.3,21.4,61.3,20.6,165.9h30.8c-1-71.8-18.9-114.7-31-139.2
		C179.1,139.2,172.1,121.6,158.7,112.5"/>
	<path class="st2" d="M57.7,146.5C43.3,167.6,22,204,21.2,275.8v2.6h32C51.4,198.5,74,150,90.5,121.5c0,0,2.8-5.7,8-12.8
		C73.8,124,57.7,146.5,57.7,146.5"/>
	<path class="st2" d="M142.6,114.8l0.8-0.2h-3.2l1.6,0.4c-5.6,19.2-16.6,76.1-16.2,163.4h33.2C159.3,191,148.3,134,142.6,114.8"/>
	<path class="st2" d="M104.3,139.1c-12.1,24.5-30,67.5-31,139.3H105c-0.7-105,13.7-147.9,20.8-166
		C112,121.4,104.3,139.1,104.3,139.1"/>
</g>
<polygon points="230.7,386.7 230.7,297.8 209.3,297.7 209.3,386.6 "/>
<polygon points="281.9,386.7 281.9,297.8 260.5,297.7 260.5,386.6 "/>
<polygon points="179.1,386.7 179.1,297.8 157.8,297.7 157.8,386.6 "/>
<polygon points="126.1,386.7 126.1,297.8 104.8,297.7 104.8,386.6 "/>
<polygon points="73.7,386.7 73.7,297.8 52.4,297.7 52.4,386.6 "/>
<polygon points="0,386.6 21.3,386.7 21.3,297.8 0,297.7 "/>
</svg>
